<svg width="27" height="44" viewBox="0 0 27 44" fill="none" xmlns="http://www.w3.org/2000/svg">
<g clip-path="url(#clip0_5_2557)">
<path d="M26.9856 29.8566C26.9278 32.6225 26.1919 35.3435 24.7488 37.6459C22.2811 41.578 17.9663 44 13.435 44C7.72046 44 2.48208 40.1128 0.663805 34.4913C-1.71727 27.1655 2.82842 20.5722 6.60929 14.8311C9.20683 10.8692 11.891 6.29426 11.1406 1.30071C11.0684 0.82229 10.9385 0.40367 10.6788 0C10.8086 0.19436 11.3426 0.373768 11.5446 0.508325C11.8765 0.717635 12.2084 0.956847 12.5259 1.19606C13.1609 1.68943 13.7525 2.22766 14.3009 2.81074C15.4121 3.99185 16.3645 5.33741 17.1438 6.77268C18.9043 10.0469 20.0155 13.9042 19.7124 17.6568C19.6403 18.5389 19.496 19.421 19.2507 20.2881C19.0919 20.8563 18.8322 21.559 19.0053 22.157C19.2362 23.0092 20.1165 22.9793 20.7515 22.5457C21.4153 22.0822 21.8626 21.4244 22.1801 20.6619C22.2811 20.4227 22.3677 20.0041 22.4832 19.6453C22.6708 19.0323 22.9449 18.5688 23.5222 19.2715C25.8744 22.157 27.0721 26.0292 26.9856 29.8566Z" fill="#B23C3B"/>
</g>
<defs>
<clipPath id="clip0_5_2557">
<rect width="27" height="44" fill="white"/>
</clipPath>
</defs>
</svg>
